<?xml version='1.0' encoding='utf-8'?>
<mlt title="Anonymous Submission" version="6.4.1" root="/home/paul/Documents/src/SmartTank/assets" producer="main bin" LC_NUMERIC="en_US.utf8">
 <profile width="1920" frame_rate_den="1" height="1080" display_aspect_num="16" display_aspect_den="9" frame_rate_num="30" colorspace="709" sample_aspect_den="1" description="HD 1080p 30 fps" progressive="1" sample_aspect_num="1"/>
 <producer id="1" title="Anonymous Submission" out="10965" in="0">
  <property name="length">00:06:05:16</property>
  <property name="eof">pause</property>
  <property name="resource">/media/DataTrove/Movies/Youtube-20170630_154535.mp4</property>
  <property name="audio_index">1</property>
  <property name="video_index">0</property>
  <property name="mute_on_pause">1</property>
  <property name="mlt_service">avformat-novalidate</property>
  <property name="meta.media.nb_streams">2</property>
  <property name="meta.media.0.stream.type">video</property>
  <property name="meta.media.0.stream.frame_rate">30</property>
  <property name="meta.media.0.stream.sample_aspect_ratio">1</property>
  <property name="meta.media.0.codec.width">1920</property>
  <property name="meta.media.0.codec.height">1088</property>
  <property name="meta.media.0.codec.rotate">0</property>
  <property name="meta.media.0.codec.frame_rate">30</property>
  <property name="meta.media.0.codec.pix_fmt">yuv420p</property>
  <property name="meta.media.0.codec.sample_aspect_ratio">1</property>
  <property name="meta.media.0.codec.colorspace">709</property>
  <property name="meta.media.0.codec.name">h264</property>
  <property name="meta.media.0.codec.long_name">H.264 / AVC / MPEG-4 AVC / MPEG-4 part 10</property>
  <property name="meta.media.0.codec.bit_rate">1634847</property>
  <property name="meta.attr.0.stream.handler_name.markup">VideoHandler</property>
  <property name="meta.media.1.stream.type">audio</property>
  <property name="meta.media.1.codec.sample_fmt">s16p</property>
  <property name="meta.media.1.codec.sample_rate">44100</property>
  <property name="meta.media.1.codec.channels">2</property>
  <property name="meta.media.1.codec.name">mp3</property>
  <property name="meta.media.1.codec.long_name">MP3 (MPEG audio layer 3)</property>
  <property name="meta.media.1.codec.bit_rate">84781</property>
  <property name="meta.attr.1.stream.handler_name.markup">SoundHandler</property>
  <property name="meta.attr.major_brand.markup">isom</property>
  <property name="meta.attr.minor_version.markup">512</property>
  <property name="meta.attr.compatible_brands.markup">isomiso2avc1mp41</property>
  <property name="meta.attr.encoder.markup">Lavf57.56.101</property>
  <property name="seekable">1</property>
  <property name="meta.media.sample_aspect_num">1</property>
  <property name="meta.media.sample_aspect_den">1</property>
  <property name="aspect_ratio">1</property>
  <property name="kdenlive:folderid">-1</property>
  <property name="meta.media.frame_rate_num">30</property>
  <property name="meta.media.frame_rate_den">1</property>
  <property name="meta.media.colorspace">709</property>
  <property name="meta.media.color_trc">2</property>
  <property name="meta.media.width">1920</property>
  <property name="meta.media.height">1080</property>
  <property name="meta.media.top_field_first">0</property>
  <property name="meta.media.progressive">1</property>
  <property name="kdenlive:file_size">78881905</property>
  <property name="kdenlive:file_hash">f49e6e7da9fae51b094b11513784c288</property>
  <property name="global_feed">1</property>
  <property name="kdenlive:zone_in">10492</property>
  <property name="kdenlive:zone_out">10682</property>
 </producer>
 <playlist id="main bin">
  <property name="kdenlive:docproperties.audiotargettrack">2</property>
  <property name="kdenlive:docproperties.decimalPoint">.</property>
  <property name="kdenlive:docproperties.dirtypreviewchunks"/>
  <property name="kdenlive:docproperties.disablepreview">0</property>
  <property name="kdenlive:docproperties.documentid">1498859437150</property>
  <property name="kdenlive:docproperties.enableproxy">0</property>
  <property name="kdenlive:docproperties.generateimageproxy">0</property>
  <property name="kdenlive:docproperties.generateproxy">0</property>
  <property name="kdenlive:docproperties.kdenliveversion">16.12.3</property>
  <property name="kdenlive:docproperties.position">1078</property>
  <property name="kdenlive:docproperties.previewchunks"/>
  <property name="kdenlive:docproperties.previewextension"/>
  <property name="kdenlive:docproperties.previewparameters"/>
  <property name="kdenlive:docproperties.profile">atsc_1080p_30</property>
  <property name="kdenlive:docproperties.proxyextension">mpg</property>
  <property name="kdenlive:docproperties.proxyimageminsize">2000</property>
  <property name="kdenlive:docproperties.proxyminsize">1000</property>
  <property name="kdenlive:docproperties.proxyparams">-vf scale=640:-1 -g 5 -qscale 6 -ab 128k -vcodec mpeg2video -acodec mp2</property>
  <property name="kdenlive:docproperties.version">0.95</property>
  <property name="kdenlive:docproperties.verticalzoom">1</property>
  <property name="kdenlive:docproperties.videotargettrack">3</property>
  <property name="kdenlive:docproperties.zonein">4</property>
  <property name="kdenlive:docproperties.zoneout">1252</property>
  <property name="kdenlive:docproperties.zoom">6</property>
  <property name="kdenlive:documentnotes"/>
  <property name="kdenlive:clipgroups">&lt;groups>
 &lt;group>
  &lt;clipitem position="606" track="3"/>
  &lt;clipitem position="828" track="3"/>
  &lt;clipitem position="0" track="3"/>
  &lt;clipitem position="984" track="3"/>
  &lt;clipitem position="184" track="3"/>
  &lt;clipitem position="515" track="3"/>
  &lt;clipitem position="92" track="3"/>
  &lt;clipitem position="278" track="3"/>
  &lt;clipitem position="722" track="3"/>
  &lt;clipitem position="395" track="3"/>
 &lt;/group>
&lt;/groups>
</property>
  <property name="kdenlive:docproperties.renderaudioquality">160</property>
  <property name="kdenlive:docproperties.rendercategory">Generic (HD for web, mobile devices...)</property>
  <property name="kdenlive:docproperties.renderendguide">-1</property>
  <property name="kdenlive:docproperties.renderexportaudio">1</property>
  <property name="kdenlive:docproperties.renderguide">0</property>
  <property name="kdenlive:docproperties.renderplay">0</property>
  <property name="kdenlive:docproperties.renderprofile">MP4 - the dominating format (H264/AAC)</property>
  <property name="kdenlive:docproperties.renderquality">23</property>
  <property name="kdenlive:docproperties.renderratio">0</property>
  <property name="kdenlive:docproperties.renderrescale">0</property>
  <property name="kdenlive:docproperties.renderrescaleheight">936</property>
  <property name="kdenlive:docproperties.renderrescalewidth">779</property>
  <property name="kdenlive:docproperties.renderscanning">0</property>
  <property name="kdenlive:docproperties.renderspeed">2</property>
  <property name="kdenlive:docproperties.renderstartguide">-1</property>
  <property name="kdenlive:docproperties.rendertcoverlay">0</property>
  <property name="kdenlive:docproperties.rendertctype">0</property>
  <property name="kdenlive:docproperties.rendertwopass">0</property>
  <property name="kdenlive:docproperties.renderurl">SmartTank.mp4</property>
  <property name="kdenlive:docproperties.renderzone">0</property>
  <property name="kdenlive:customeffects">&lt;customeffects>
 &lt;effect id="KSPCrop" effectcolor="#f9a859" tag="crop" kdenlive_info="0/-1/" type="custom">
  &lt;name>KSPCrop&lt;/name>
  &lt;description>Trim the edges of a clip&lt;/description>
  &lt;author>Dan Dennedy&lt;/author>
  &lt;parameter default="0" suffix="pixels" value="69" min="0" max="%maxHeight" name="top" type="constant">
   &lt;name>Top&lt;/name>
  &lt;/parameter>
  &lt;parameter default="0" suffix="pixels" value="679" min="0" max="%maxWidth" name="left" type="constant">
   &lt;name>Left&lt;/name>
  &lt;/parameter>
  &lt;parameter default="0" suffix="pixels" value="75" min="0" max="%maxHeight" name="bottom" type="constant">
   &lt;name>Bottom&lt;/name>
  &lt;/parameter>
  &lt;parameter default="0" suffix="pixels" value="462" min="0" max="%maxWidth" name="right" type="constant">
   &lt;name>Right&lt;/name>
  &lt;/parameter>
  &lt;parameter default="0" value="0" name="center" type="bool">
   &lt;name>Automatic center-crop&lt;/name>
  &lt;/parameter>
  &lt;parameter default="0" value="0" min="-%maxWidth" max="%maxWidth" name="center_bias" type="constant">
   &lt;name>Center balance&lt;/name>
  &lt;/parameter>
  &lt;parameter default="0" value="0" name="use_profile" type="bool">
   &lt;name>Use project resolution&lt;/name>
  &lt;/parameter>
  &lt;version>1&lt;/version>
 &lt;/effect>
&lt;/customeffects>
</property>
  <property name="xml_retain">1</property>
  <entry out="10965" producer="1" in="0"/>
 </playlist>
 <producer id="black" out="500" in="0">
  <property name="length">15000</property>
  <property name="eof">pause</property>
  <property name="resource">black</property>
  <property name="aspect_ratio">0</property>
  <property name="mlt_service">colour</property>
  <property name="set.test_audio">0</property>
 </producer>
 <playlist id="black_track">
  <entry out="1175" producer="black" in="0"/>
 </playlist>
 <playlist id="playlist1">
  <property name="kdenlive:track_name">Audio 2</property>
  <property name="kdenlive:audio_track">1</property>
 </playlist>
 <playlist id="playlist2">
  <property name="kdenlive:track_name">Audio 1</property>
  <property name="kdenlive:audio_track">1</property>
 </playlist>
 <producer id="1_playlist3" title="Anonymous Submission" out="10965" in="0">
  <property name="length">00:06:05:16</property>
  <property name="eof">pause</property>
  <property name="resource">/media/DataTrove/Movies/Youtube-20170630_154535.mp4</property>
  <property name="audio_index">1</property>
  <property name="video_index">0</property>
  <property name="mute_on_pause">1</property>
  <property name="mlt_service">avformat-novalidate</property>
  <property name="seekable">1</property>
  <property name="aspect_ratio">1</property>
  <property name="kdenlive:folderid">-1</property>
  <property name="kdenlive:file_size">78881905</property>
  <property name="kdenlive:file_hash">f49e6e7da9fae51b094b11513784c288</property>
  <property name="global_feed">1</property>
  <property name="kdenlive:zone_in">1132</property>
  <property name="kdenlive:zone_out">1223</property>
  <property name="xml">was here</property>
  <property name="meta.media.nb_streams">2</property>
  <property name="meta.media.0.stream.type">video</property>
  <property name="meta.media.0.stream.frame_rate">30</property>
  <property name="meta.media.0.stream.sample_aspect_ratio">1</property>
  <property name="meta.media.0.codec.width">1920</property>
  <property name="meta.media.0.codec.height">1088</property>
  <property name="meta.media.0.codec.rotate">0</property>
  <property name="meta.media.0.codec.frame_rate">30</property>
  <property name="meta.media.0.codec.pix_fmt">yuv420p</property>
  <property name="meta.media.0.codec.sample_aspect_ratio">1</property>
  <property name="meta.media.0.codec.colorspace">709</property>
  <property name="meta.media.0.codec.name">h264</property>
  <property name="meta.media.0.codec.long_name">H.264 / AVC / MPEG-4 AVC / MPEG-4 part 10</property>
  <property name="meta.media.0.codec.bit_rate">1634847</property>
  <property name="meta.attr.0.stream.handler_name.markup">VideoHandler</property>
  <property name="meta.media.1.stream.type">audio</property>
  <property name="meta.media.1.codec.sample_fmt">s16p</property>
  <property name="meta.media.1.codec.sample_rate">44100</property>
  <property name="meta.media.1.codec.channels">2</property>
  <property name="meta.media.1.codec.name">mp3</property>
  <property name="meta.media.1.codec.long_name">MP3 (MPEG audio layer 3)</property>
  <property name="meta.media.1.codec.bit_rate">84781</property>
  <property name="meta.attr.1.stream.handler_name.markup">SoundHandler</property>
  <property name="meta.attr.major_brand.markup">isom</property>
  <property name="meta.attr.minor_version.markup">512</property>
  <property name="meta.attr.compatible_brands.markup">isomiso2avc1mp41</property>
  <property name="meta.attr.encoder.markup">Lavf57.56.101</property>
  <property name="meta.media.sample_aspect_num">1</property>
  <property name="meta.media.sample_aspect_den">1</property>
  <property name="meta.media.frame_rate_num">30</property>
  <property name="meta.media.frame_rate_den">1</property>
  <property name="meta.media.colorspace">709</property>
  <property name="meta.media.color_trc">2</property>
  <property name="meta.media.width">1920</property>
  <property name="meta.media.height">1080</property>
  <property name="meta.media.top_field_first">0</property>
  <property name="meta.media.progressive">1</property>
 </producer>
 <playlist id="playlist3">
  <property name="kdenlive:track_name">Video 1</property>
  <entry out="1223" producer="1_playlist3" in="1132"/>
  <entry out="1741" producer="1_playlist3" in="1650"/>
  <entry out="2532" producer="1_playlist3" in="2439"/>
  <entry out="5164" producer="1_playlist3" in="5048"/>
  <entry out="5357" producer="1_playlist3" in="5238"/>
  <entry out="5508" producer="1_playlist3" in="5418"/>
  <entry out="7933" producer="1_playlist3" in="7818"/>
  <entry out="8098" producer="1_playlist3" in="7993"/>
  <entry out="8322" producer="1_playlist3" in="8167"/>
  <entry out="10682" producer="1_playlist3" in="10492"/>
 </playlist>
 <playlist id="playlist4">
  <property name="kdenlive:track_name">Video 2</property>
 </playlist>
 <playlist id="playlist5">
  <property name="kdenlive:track_name">Video 3</property>
 </playlist>
 <tractor id="maintractor" title="Anonymous Submission" global_feed="1" out="1175" in="0">
  <track producer="black_track"/>
  <track producer="playlist1" hide="video"/>
  <track producer="playlist2" hide="video"/>
  <track producer="playlist3" hide="audio"/>
  <track producer="playlist4"/>
  <track producer="playlist5"/>
  <transition id="transition0">
   <property name="a_track">0</property>
   <property name="b_track">1</property>
   <property name="mlt_service">mix</property>
   <property name="always_active">1</property>
   <property name="combine">1</property>
   <property name="internal_added">237</property>
  </transition>
  <transition id="transition1">
   <property name="a_track">0</property>
   <property name="b_track">2</property>
   <property name="mlt_service">mix</property>
   <property name="always_active">1</property>
   <property name="combine">1</property>
   <property name="internal_added">237</property>
  </transition>
  <transition id="transition2">
   <property name="a_track">0</property>
   <property name="b_track">3</property>
   <property name="mlt_service">mix</property>
   <property name="always_active">1</property>
   <property name="combine">1</property>
   <property name="internal_added">237</property>
  </transition>
  <transition id="transition3">
   <property name="a_track">0</property>
   <property name="b_track">4</property>
   <property name="mlt_service">mix</property>
   <property name="always_active">1</property>
   <property name="combine">1</property>
   <property name="internal_added">237</property>
  </transition>
  <transition id="transition4">
   <property name="a_track">0</property>
   <property name="b_track">5</property>
   <property name="mlt_service">mix</property>
   <property name="always_active">1</property>
   <property name="combine">1</property>
   <property name="internal_added">237</property>
  </transition>
  <transition id="transition7" out="10682" in="10492">
   <property name="a_track">0</property>
   <property name="b_track">3</property>
   <property name="start">0/0:100%x100%</property>
   <property name="factory">loader</property>
   <property name="aligned">1</property>
   <property name="progressive">1</property>
   <property name="mlt_service">composite</property>
   <property name="always_active">1</property>
   <property name="valign">middle</property>
   <property name="halign">centre</property>
   <property name="fill">1</property>
   <property name="geometry">0=0/0:1920x1080</property>
   <property name="internal_added">237</property>
  </transition>
  <transition id="transition8">
   <property name="a_track">0</property>
   <property name="b_track">4</property>
   <property name="start">0/0:100%x100%</property>
   <property name="factory">loader</property>
   <property name="aligned">1</property>
   <property name="progressive">1</property>
   <property name="mlt_service">composite</property>
   <property name="always_active">1</property>
   <property name="valign">middle</property>
   <property name="halign">centre</property>
   <property name="fill">1</property>
   <property name="geometry">0=0/0:1920x1080</property>
   <property name="internal_added">237</property>
  </transition>
  <transition id="transition9">
   <property name="a_track">0</property>
   <property name="b_track">5</property>
   <property name="start">0/0:100%x100%</property>
   <property name="factory">loader</property>
   <property name="aligned">1</property>
   <property name="progressive">1</property>
   <property name="mlt_service">composite</property>
   <property name="always_active">1</property>
   <property name="valign">middle</property>
   <property name="halign">centre</property>
   <property name="fill">1</property>
   <property name="geometry">0=0/0:1920x1080</property>
   <property name="internal_added">237</property>
  </transition>
 </tractor>
</mlt>
